<?xml version="1.0" encoding="UTF-8"?>
<svg xmlns="http://www.w3.org/2000/svg" viewBox="0 0 100 100" width="100" height="100" role="img" aria-label="Staff Casey, sleep">
  <title>Staff Casey, sleep</title>
  
  <ellipse cx="50" cy="97" rx="22" ry="3" fill="#2D2A3E" opacity="0.12"/>
  <path d="M26,67 C22,71 22,89 30,94 L70,94 C78,89 78,71 74,67 C67,60 58,58 50,58 C42,58 34,60 26,67 Z" fill="#D4C5B0" stroke="#2D2A3E" stroke-width="2" stroke-linejoin="round"/>
  
  <rect x="34" y="61" width="32" height="5" rx="2.5" fill="#7CA897"/>
  <rect x="47" y="64" width="6" height="7" rx="1.5" fill="#E8D5B0"/>
  <text x="50" y="69.5" text-anchor="middle" font-family="monospace" font-size="3" fill="#5E8F72">&lt;&gt;</text>
  <ellipse cx="50" cy="78" rx="18" ry="12" fill="#D4C5B0" stroke="#2D2A3E" stroke-width="1.5" opacity="0.9"/>
  <g transform="translate(2, 4) rotate(-8, 50, 55)">
  
  <path d="M26,25 L17,7 L39,19 Z" fill="#FAFAF8" stroke="#2D2A3E" stroke-width="1.2" stroke-linejoin="round"/>
  <path d="M28,24 L21,13 L36,20 Z" fill="#F2C4C4"/>
  <path d="M74,25 L83,7 L61,19 Z" fill="#FAFAF8" stroke="#2D2A3E" stroke-width="1.2" stroke-linejoin="round"/>
  <path d="M72,24 L79,13 L64,20 Z" fill="#F2C4C4"/>
  <ellipse cx="50" cy="37" rx="20" ry="22" fill="#FAFAF8" stroke="#2D2A3E" stroke-width="2" stroke-linejoin="round"/>
  <ellipse cx="50" cy="42" rx="12" ry="8" fill="#EDE8DF" opacity="0.4"/>
  <ellipse cx="40" cy="45" rx="4" ry="2.5" fill="#F2C4C4" opacity="0.35"/>
  <ellipse cx="60" cy="45" rx="4" ry="2.5" fill="#F2C4C4" opacity="0.35"/>
  
  <path d="M36,39 Q40,43 44,39" stroke="#2D2A3E" stroke-width="1.8" fill="none" stroke-linecap="round"/>
  <path d="M56,39 Q60,43 64,39" stroke="#2D2A3E" stroke-width="1.8" fill="none" stroke-linecap="round"/>
  <path d="M47,47 L50 51 L53,47 Q50,45 47,47 Z" fill="#F0A0A0"/>
  <path d="M46,56 Q50,54 54,56" stroke="#B07878" stroke-width="1.5" fill="none" stroke-linecap="round"/>
  <line x1="27" y1="48" x2="42" y2="49" stroke="#C8BFB5" stroke-width="0.8"/>
  <line x1="27" y1="51" x2="42" y2="52" stroke="#C8BFB5" stroke-width="0.8"/>
  <line x1="58" y1="49" x2="73" y2="48" stroke="#C8BFB5" stroke-width="0.8"/>
  <line x1="58" y1="52" x2="73" y2="51" stroke="#C8BFB5" stroke-width="0.8"/></g>
</svg>
