<svg xmlns="http://www.w3.org/2000/svg" viewBox="0 0 100 100" width="100" height="100" role="img" aria-label="Staff Casey — think">
  <title>Staff Casey, think</title>
  <!-- body -->
  <path d="M28,67 C24,71 24,89 32,94 L68,94 C76,89 76,71 72,67 C65,60 56,58 50,58 C44,58 35,60 28,67 Z" fill="#8C7A6E"/>
  <!-- coffee mug -->
  <rect x="80" y="82" width="13" height="13" rx="2.5" fill="#D4B896"/>
  <path d="M93,87 C98,87 98,91 93,91" stroke="#C4986A" stroke-width="1.8" fill="none"/>
  <rect x="80" y="82" width="13" height="4" rx="1.5" fill="#A07050" opacity="0.5"/>
  <!-- paw: right resting -->
  <ellipse cx="67" cy="91" rx="9" ry="5" fill="#F2EDE6"/>
  <circle cx="62" cy="90" r="2.5" fill="#E8E0D4"/>
  <circle cx="67" cy="88" r="2.5" fill="#E8E0D4"/>
  <circle cx="72" cy="90" r="2.5" fill="#E8E0D4"/>
  <!-- left arm: bent up, chin rest (considered pose) -->
  <path d="M29,73 C25,65 27,56 34,52" stroke="#8C7A6E" stroke-width="9" fill="none" stroke-linecap="round"/>
  <ellipse cx="35" cy="51" rx="7" ry="6" fill="#F2EDE6"/>
  <!-- head group: slight tilt -->
  <g transform="rotate(6, 50, 38)">
    <rect x="34" y="62" width="32" height="5" rx="2.5" fill="#5E8F72"/>
    <rect x="47" y="65" width="6" height="7" rx="1.5" fill="#7CB89A"/>
    <text x="50" y="70.5" text-anchor="middle" font-family="monospace" font-size="3" fill="#3A6B4F">&lt;&gt;</text>
    <ellipse cx="50" cy="38" rx="21" ry="23" fill="#F2EDE6"/>
    <ellipse cx="50" cy="43" rx="13" ry="10" fill="#E8E0D4" opacity="0.35"/>
    <path d="M29,23 L22,6 L40,18 Z" fill="#F2EDE6"/>
    <path d="M31,22 L25,11 L38,18 Z" fill="#EAB5B5" opacity="0.7"/>
    <path d="M71,23 L78,6 L60,18 Z" fill="#F2EDE6"/>
    <path d="M69,22 L75,11 L62,18 Z" fill="#EAB5B5" opacity="0.7"/>
    <!-- glasses tilt with head -->
    <rect x="30" y="31" width="14" height="9" rx="4.5" fill="none" stroke="#C4986A" stroke-width="1.5"/>
    <rect x="56" y="31" width="14" height="9" rx="4.5" fill="none" stroke="#C4986A" stroke-width="1.5"/>
    <line x1="44" y1="35" x2="56" y2="35" stroke="#C4986A" stroke-width="1.2"/>
    <line x1="18" y1="35" x2="30" y2="35" stroke="#C4986A" stroke-width="1.2"/>
    <line x1="70" y1="35" x2="78" y2="35" stroke="#C4986A" stroke-width="1.2"/>
    <ellipse cx="38" cy="36" rx="5.5" ry="6.5" fill="#5BA3D4"/>
    <ellipse cx="38" cy="37" rx="3.8" ry="4.8" fill="#1A1410"/>
    <circle cx="40" cy="33" r="1.8" fill="#fff"/>
    <ellipse cx="62" cy="36" rx="5.5" ry="6.5" fill="#5BA3D4"/>
    <ellipse cx="62" cy="37" rx="3.8" ry="4.8" fill="#1A1410"/>
    <circle cx="64" cy="33" r="1.8" fill="#fff"/>
    <path d="M47,47 L50,51 L53,47 Q50,45 47,47 Z" fill="#D4909A"/>
    <path d="M45,53 Q50,57 55,53" stroke="#B07878" stroke-width="1.5" fill="none" stroke-linecap="round"/>
    <line x1="28" y1="48" x2="42" y2="49" stroke="#C8BFB5" stroke-width="0.8"/>
    <line x1="28" y1="51" x2="42" y2="52" stroke="#C8BFB5" stroke-width="0.8"/>
    <line x1="58" y1="49" x2="72" y2="48" stroke="#C8BFB5" stroke-width="0.8"/>
    <line x1="58" y1="52" x2="72" y2="51" stroke="#C8BFB5" stroke-width="0.8"/>
  </g>
</svg>
