<?xml version="1.0" encoding="UTF-8"?>
<svg xmlns="http://www.w3.org/2000/svg" viewBox="0 0 100 100" width="100" height="100" role="img" aria-label="Junior Casey, sleep">
  <title>Junior Casey, sleep</title>
  
  <ellipse cx="50" cy="97" rx="24" ry="3.5" fill="#2D2A3E" opacity="0.1"/>
  
  <g>
  <path d="M20,70 C16,74 16,92 26,97 L74,97 C84,92 84,74 80,70 C72,62 58,60 50,60 C42,60 28,62 20,70 Z" fill="#8BAF9F" stroke="#2D2A3E" stroke-width="2.2" stroke-linejoin="round"/>
  
  <rect x="34" y="61" width="32" height="5" rx="2.5" fill="#7CA897"/>
  <rect x="47" y="64" width="6" height="7" rx="1.5" fill="#E8D5B0"/>
  <text x="50" y="69.5" text-anchor="middle" font-family="monospace" font-size="3" fill="#5E8F72">&lt;&gt;</text><ellipse cx="50" cy="78" rx="20" ry="13" fill="#8BAF9F" stroke="#2D2A3E" stroke-width="1.5" opacity="0.95"/><g transform="translate(2, 5) rotate(-10, 50, 55)">
  
  <path d="M26,24 L17,6 L39,18 Z" fill="#FAFAF8" stroke="#2D2A3E" stroke-width="1.4" stroke-linejoin="round"/>
  <path d="M28,23 L21,12 L36,19 Z" fill="#F2C4C4"/>
  <path d="M74,24 L83,6 L61,18 Z" fill="#FAFAF8" stroke="#2D2A3E" stroke-width="1.4" stroke-linejoin="round"/>
  <path d="M72,23 L79,12 L64,19 Z" fill="#F2C4C4"/>
  
  
  <ellipse cx="50" cy="36" rx="25" ry="27" fill="#FAFAF8" stroke="#2D2A3E" stroke-width="2.2" stroke-linejoin="round"/>
  <ellipse cx="50" cy="41" rx="17" ry="13" fill="#EDE8DF" opacity="0.45"/>
  <ellipse cx="40" cy="44" rx="4.5" ry="2.8" fill="#F2C4C4" opacity="0.4"/>
  <ellipse cx="60" cy="44" rx="4.5" ry="2.8" fill="#F2C4C4" opacity="0.4"/>
  
  <path d="M36,38 Q40,42 44,38" stroke="#2D2A3E" stroke-width="1.8" fill="none" stroke-linecap="round"/>
  <path d="M56,38 Q60,42 64,38" stroke="#2D2A3E" stroke-width="1.8" fill="none" stroke-linecap="round"/>
  <path d="M47,46 L50 50 L53,46 Q50,44 47,46 Z" fill="#F0A0A0"/>
  <path d="M46,56 Q50,54 54,56" stroke="#B07878" stroke-width="1.6" fill="none" stroke-linecap="round"/>
  <line x1="27" y1="47" x2="42" y2="48" stroke="#C8BFB5" stroke-width="0.8"/>
  <line x1="27" y1="50" x2="42" y2="51" stroke="#C8BFB5" stroke-width="0.8"/>
  <line x1="58" y1="48" x2="73" y2="47" stroke="#C8BFB5" stroke-width="0.8"/>
  <line x1="58" y1="51" x2="73" y2="50" stroke="#C8BFB5" stroke-width="0.8"/></g></g>
</svg>
